<?xml version="1.0" encoding="UTF-8" standalone="no"?>
<svg width="760px" height="445px" viewBox="0 0 760 445" version="1.1" xmlns="http://www.w3.org/2000/svg" xmlns:xlink="http://www.w3.org/1999/xlink" xmlns:sketch="http://www.bohemiancoding.com/sketch/ns">
    <!-- Generator: Sketch 3.1.1 (8761) - http://www.bohemiancoding.com/sketch -->
    <title>Transclusion 2</title>
    <desc>Created with Sketch.</desc>
    <defs></defs>
    <g id="Page-1" stroke="none" stroke-width="1" fill="none" fill-rule="evenodd" sketch:type="MSPage">
        <g id="Transclusion-2" sketch:type="MSArtboardGroup">
            <g id="Legend" sketch:type="MSLayerGroup" transform="translate(166.000000, 22.000000)" font-size="14" font-family="Menlo" font-weight="normal">
                <text id="PHASE-1:-Compile-fro" sketch:type="MSTextLayer" fill="#4990E2">
                    <tspan x="0" y="13">PHASE 1: Compile from bottom to top in reverse order</tspan>
                </text>
                <text id="PHASE-2:-Followed-by" sketch:type="MSTextLayer" fill="#9012FE">
                    <tspan x="0" y="40">PHASE 2: Followed by pre-link in original order</tspan>
                </text>
                <text id="PHASE-3:-Followed-by" sketch:type="MSTextLayer" fill="#F6A623">
                    <tspan x="0" y="68">PHASE 3: Followed by post-link in reversed order</tspan>
                </text>
            </g>
            <g id="Level-one" sketch:type="MSLayerGroup" transform="translate(8.000000, 123.000000)">
                <rect id="Rectangle-2" stroke="#979797" fill="#D8D8D8" sketch:type="MSShapeGroup" x="0" y="0" width="642" height="47" rx="8"></rect>
                <text id="&lt;level-one&gt;" sketch:type="MSTextLayer" font-family="Menlo" font-size="14" font-weight="normal" fill="#4E4E4E">
                    <tspan x="14" y="29">&lt;level-one&gt;</tspan>
                </text>
                <g id="compile" transform="translate(159.000000, 9.000000)">
                    <rect id="Rectangle-3" stroke="#FFFFFF" fill-opacity="0.75" fill="#4990E2" sketch:type="MSShapeGroup" x="0" y="0" width="152" height="30" rx="8"></rect>
                    <text sketch:type="MSTextLayer" font-family="Menlo" font-size="14" font-weight="normal" fill="#FFFFFF">
                        <tspan x="46" y="20">compile</tspan>
                    </text>
                </g>
                <g id="pre-link" transform="translate(319.000000, 9.000000)">
                    <rect id="Rectangle-3" stroke="#FFFFFF" fill-opacity="0.75" fill="#9012FE" sketch:type="MSShapeGroup" x="0" y="0" width="152" height="30" rx="8"></rect>
                    <text sketch:type="MSTextLayer" font-family="Menlo" font-size="14" font-weight="normal" fill="#FFFFFF">
                        <tspan x="46" y="20">pre-link</tspan>
                    </text>
                </g>
                <g id="post-link" transform="translate(479.000000, 9.000000)">
                    <rect id="Rectangle-3" stroke="#FFFFFF" fill-opacity="0.75" fill="#F6A623" sketch:type="MSShapeGroup" x="0" y="0" width="152" height="30" rx="8"></rect>
                    <text sketch:type="MSTextLayer" font-family="Menlo" font-size="14" font-weight="normal" fill="#FFFFFF">
                        <tspan x="46" y="20">post-link</tspan>
                    </text>
                </g>
            </g>
            <g id="Level-two" sketch:type="MSLayerGroup" transform="translate(58.000000, 248.000000)">
                <rect id="Rectangle-2" stroke="#979797" fill="#D8D8D8" sketch:type="MSShapeGroup" x="0" y="0" width="642" height="47" rx="8"></rect>
                <text id="&lt;level-two&gt;" sketch:type="MSTextLayer" font-family="Menlo" font-size="14" font-weight="normal" fill="#4E4E4E">
                    <tspan x="14" y="29">&lt;level-two&gt;</tspan>
                </text>
                <g id="compile" transform="translate(159.000000, 9.000000)">
                    <rect id="Rectangle-3" stroke="#FFFFFF" fill-opacity="0.75" fill="#4990E2" sketch:type="MSShapeGroup" x="0" y="0" width="152" height="30" rx="8"></rect>
                    <text sketch:type="MSTextLayer" font-family="Menlo" font-size="14" font-weight="normal" fill="#FFFFFF">
                        <tspan x="46" y="20">compile</tspan>
                    </text>
                </g>
                <g id="pre-link" transform="translate(319.000000, 9.000000)">
                    <rect id="Rectangle-3" stroke="#FFFFFF" fill-opacity="0.75" fill="#9012FE" sketch:type="MSShapeGroup" x="0" y="0" width="152" height="30" rx="8"></rect>
                    <text sketch:type="MSTextLayer" font-family="Menlo" font-size="14" font-weight="normal" fill="#FFFFFF">
                        <tspan x="46" y="20">pre-link</tspan>
                    </text>
                </g>
                <g id="post-link" transform="translate(479.000000, 9.000000)">
                    <rect id="Rectangle-3" stroke="#FFFFFF" fill-opacity="0.75" fill="#F6A623" sketch:type="MSShapeGroup" x="0" y="0" width="152" height="30" rx="8"></rect>
                    <text sketch:type="MSTextLayer" font-family="Menlo" font-size="14" font-weight="normal" fill="#FFFFFF">
                        <tspan x="46" y="20">post-link</tspan>
                    </text>
                </g>
            </g>
            <g id="Level-three" sketch:type="MSLayerGroup" transform="translate(108.000000, 373.000000)">
                <rect id="Rectangle-2" stroke="#979797" fill="#D8D8D8" sketch:type="MSShapeGroup" x="0" y="0" width="642" height="47" rx="8"></rect>
                <text id="&lt;level-three&gt;" sketch:type="MSTextLayer" font-family="Menlo" font-size="14" font-weight="normal" fill="#4E4E4E">
                    <tspan x="14" y="29">&lt;level-three&gt;</tspan>
                </text>
                <g id="compile" transform="translate(159.000000, 9.000000)">
                    <rect id="Rectangle-3" stroke="#FFFFFF" fill-opacity="0.75" fill="#4990E2" sketch:type="MSShapeGroup" x="0" y="0" width="152" height="30" rx="8"></rect>
                    <text sketch:type="MSTextLayer" font-family="Menlo" font-size="14" font-weight="normal" fill="#FFFFFF">
                        <tspan x="46" y="20">compile</tspan>
                    </text>
                </g>
                <g id="pre-link" transform="translate(319.000000, 9.000000)">
                    <rect id="Rectangle-3" stroke="#FFFFFF" fill-opacity="0.75" fill="#9012FE" sketch:type="MSShapeGroup" x="0" y="0" width="152" height="30" rx="8"></rect>
                    <text sketch:type="MSTextLayer" font-family="Menlo" font-size="14" font-weight="normal" fill="#FFFFFF">
                        <tspan x="46" y="20">pre-link</tspan>
                    </text>
                </g>
                <g id="post-link" transform="translate(479.000000, 9.000000)">
                    <rect id="Rectangle-3" stroke="#FFFFFF" fill-opacity="0.75" fill="#F6A623" sketch:type="MSShapeGroup" x="0" y="0" width="152" height="30" rx="8"></rect>
                    <text sketch:type="MSTextLayer" font-family="Menlo" font-size="14" font-weight="normal" fill="#FFFFFF">
                        <tspan x="46" y="20">post-link</tspan>
                    </text>
                </g>
            </g>
            <g id="Lines" sketch:type="MSLayerGroup" transform="translate(250.000000, 178.000000)" stroke-linecap="square">
                <path d="M78.5,183.532787 L53.5,127.467213" id="Line" stroke="#4990E2" fill="#4990E2" sketch:type="MSShapeGroup"></path>
                <path id="Line-decoration-1" d="M53.6575565,127.820553 C54.2379924,131.700501 54.7355089,135.02617 55.3159449,138.906118 C57.233907,138.050886 58.8778746,137.317831 60.7958367,136.462599 C58.2974387,133.437883 56.1559546,130.845269 53.6575565,127.820553 C53.6575565,127.820553 53.6575565,127.820553 53.6575565,127.820553 Z" stroke="#4990E2" fill="#4990E2"></path>
                <path d="M25.5,56.5327869 L0.5,0.467213115" id="Line-2" stroke="#4990E2" fill="#4990E2" sketch:type="MSShapeGroup"></path>
                <path id="Line-2-decoration-1" d="M0.657556535,0.820553016 C1.23799245,4.70050072 1.73550895,8.02617017 2.31594486,11.9061179 C4.23390701,11.0508862 5.87787457,10.3178305 7.79583672,9.46259884 C5.29743865,6.4378828 3.1559546,3.84526906 0.657556535,0.820553016 C0.657556535,0.820553016 0.657556535,0.820553016 0.657556535,0.820553016 Z" stroke="#4990E2" fill="#4990E2"></path>
                <path d="M248.5,183.532787 L223.5,127.467213" id="Line-3" stroke="#9012FE" fill="#9012FE" sketch:type="MSShapeGroup"></path>
                <path id="Line-3-decoration-1" d="M248.174197,182.802135 C245.675799,179.777419 243.534315,177.184805 241.035917,174.160089 C242.953879,173.304857 244.597847,172.571801 246.515809,171.71657 C247.096245,175.596517 247.593762,178.922187 248.174197,182.802135 C248.174197,182.802135 248.174197,182.802135 248.174197,182.802135 Z" stroke="#9012FE" fill="#9012FE"></path>
                <path d="M195.5,56.5327869 L170.5,0.467213115" id="Line-4" stroke="#9012FE" fill="#9012FE" sketch:type="MSShapeGroup"></path>
                <path id="Line-4-decoration-1" d="M195.174197,55.8021346 C192.675799,52.7774186 190.534315,50.1848049 188.035917,47.1600888 C189.953879,46.3048572 191.597847,45.5718014 193.515809,44.7165698 C194.096245,48.5965175 194.593762,51.9221869 195.174197,55.8021346 C195.174197,55.8021346 195.174197,55.8021346 195.174197,55.8021346 Z" stroke="#9012FE" fill="#9012FE"></path>
                <path d="M408.5,183.532787 L383.5,127.467213" id="Line-5" stroke="#F6A623" fill="#F6A623" sketch:type="MSShapeGroup"></path>
                <path id="Line-5-decoration-1" d="M383.657557,127.820553 C384.237992,131.700501 384.735509,135.02617 385.315945,138.906118 C387.233907,138.050886 388.877875,137.317831 390.795837,136.462599 C388.297439,133.437883 386.155955,130.845269 383.657557,127.820553 C383.657557,127.820553 383.657557,127.820553 383.657557,127.820553 Z" stroke="#F6A623" fill="#F6A623"></path>
                <path d="M355.5,56.5327869 L330.5,0.467213115" id="Line-6" stroke="#F6A623" fill="#F6A623" sketch:type="MSShapeGroup"></path>
                <path id="Line-6-decoration-1" d="M330.657557,0.820553016 C331.237992,4.70050072 331.735509,8.02617017 332.315945,11.9061179 C334.233907,11.0508862 335.877875,10.3178305 337.795837,9.46259884 C335.297439,6.4378828 333.155955,3.84526906 330.657557,0.820553016 C330.657557,0.820553016 330.657557,0.820553016 330.657557,0.820553016 Z" stroke="#F6A623" fill="#F6A623"></path>
            </g>
        </g>
    </g>
</svg>